<svg width="16" height="16" viewBox="0 0 14 16" fill="none" xmlns="http://www.w3.org/2000/svg">
    <path
        d="M3.99988 5.11336V4.4667C3.99988 2.9667 5.20655 1.49336 6.70655 1.35336C7.12334 1.31242 7.54407 1.35918 7.94169 1.49066C8.33931 1.62213 8.705 1.8354 9.01522 2.11673C9.32544 2.39806 9.57332 2.74123 9.7429 3.12414C9.91249 3.50706 10 3.92124 9.99989 4.34003V5.26003M1.53988 11.04L1.69322 12.2867C1.83988 13.5934 2.31988 14.6667 4.99989 14.6667H8.99989C11.6799 14.6667 12.1599 13.5934 12.2999 12.2867L12.7999 8.2867C12.9799 6.66003 12.5132 5.33336 9.66655 5.33336H4.33322C1.48655 5.33336 1.01988 6.66003 1.19988 8.2867"
        stroke="white" stroke-width="1.5" stroke-miterlimit="10" stroke-linecap="round"
        stroke-linejoin="round" />
</svg>
